{
  "accessors": [
    {
      "bufferView": 2,
      "componentType": 5126,
      "count": 960,
      "max": [
        0.072118446230888367,
        0.036918006837368011,
        -0.015729198232293129
      ],
      "min": [
        -0.069451063871383667,
        -0.037497412413358688,
        -0.088560603559017181
      ],
      "type": "VEC3"
    },
    {
      "bufferView": 2,
      "byteOffset": 11520,
      "componentType": 5126,
      "count": 960,
      "max": [
        0.99826014041900635,
        0.99998712539672852,
        0.97524815797805786
      ],
      "min": [
        -0.999442458152771,
        -0.99998712539672852,
        -0.98484474420547485
      ],
      "type": "VEC3"
    },
    {
      "bufferView": 1,
      "componentType": 5126,
      "count": 960,
      "max": [
        0.98774152994155884,
        0.98069971799850464
      ],
      "min": [
        0.010305286385118961,
        0.0058906096965074539
      ],
      "type": "VEC2"
    },
    {
      "bufferView": 0,
      "componentType": 5125,
      "count": 5736,
      "max": [
        959
      ],
      "min": [
        0
      ],
      "type": "SCALAR"
    },
    {
      "bufferView": 2,
      "byteOffset": 23040,
      "componentType": 5126,
      "count": 136,
      "max": [
        0.085521899163722992,
        0.012751901522278786,
        0.016457410529255867
      ],
      "min": [
        -0.08335915207862854,
        -0.013063656166195869,
        0.010274603962898254
      ],
      "type": "VEC3"
    },
    {
      "bufferView": 2,
      "byteOffset": 24672,
      "componentType": 5126,
      "count": 136,
      "max": [
        0.99583172798156738,
        0.99999529123306274,
        0.091210879385471344
      ],
      "min": [
        -0.99583160877227783,
        -0.99999523162841797,
        -0.99999904632568359
      ],
      "type": "VEC3"
    },
    {
      "bufferView": 3,
      "componentType": 5126,
      "count": 136,
      "max": [
        0.98167526721954346,
        0.96548944711685181,
        0.98087495565414429,
        -1
      ],
      "min": [
        -0.40509641170501709,
        -0.16407418251037598,
        -0.93373280763626099,
        -1
      ],
      "type": "VEC4"
    },
    {
      "bufferView": 1,
      "byteOffset": 7680,
      "componentType": 5126,
      "count": 136,
      "max": [
        0.56540888547897339,
        0.9731675386428833
      ],
      "min": [
        0.38203617930412292,
        0.79303270578384399
      ],
      "type": "VEC2"
    },
    {
      "bufferView": 0,
      "byteOffset": 22944,
      "componentType": 5125,
      "count": 444,
      "max": [
        135
      ],
      "min": [
        0
      ],
      "type": "SCALAR"
    },
    {
      "bufferView": 2,
      "byteOffset": 26304,
      "componentType": 5126,
      "count": 1256,
      "max": [
        0.083956614136695862,
        0.035467218607664108,
        0.016466893255710602
      ],
      "min": [
        -0.08179386705160141,
        -0.036194551736116409,
        -0.090656168758869171
      ],
      "type": "VEC3"
    },
    {
      "bufferView": 2,
      "byteOffset": 41376,
      "componentType": 5126,
      "count": 1256,
      "max": [
        1,
        1,
        1
      ],
      "min": [
        -1,
        -1,
        -0.99897313117980957
      ],
      "type": "VEC3"
    },
    {
      "bufferView": 3,
      "byteOffset": 2176,
      "componentType": 5126,
      "count": 1256,
      "max": [
        1,
        1,
        0.95105588436126709,
        1
      ],
      "min": [
        -1,
        -1,
        -0.9999997615814209,
        -1
      ],
      "type": "VEC4"
    },
    {
      "bufferView": 1,
      "byteOffset": 8768,
      "componentType": 5126,
      "count": 1256,
      "max": [
        0.99506938457489014,
        0.90801286697387695
      ],
      "min": [
        0.0012964131310582161,
        0.0032402623910456896
      ],
      "type": "VEC2"
    },
    {
      "bufferView": 0,
      "byteOffset": 24720,
      "componentType": 5125,
      "count": 4212,
      "max": [
        1255
      ],
      "min": [
        0
      ],
      "type": "SCALAR"
    },
    {
      "bufferView": 2,
      "byteOffset": 56448,
      "componentType": 5126,
      "count": 384,
      "max": [
        0.085669122636318207,
        0.012751901522278786,
        0.10906388610601425
      ],
      "min": [
        -0.083506383001804352,
        -0.013428501784801483,
        0.010773703455924988
      ],
      "type": "VEC3"
    },
    {
      "bufferView": 2,
      "byteOffset": 61056,
      "componentType": 5126,
      "count": 384,
      "max": [
        0.99985390901565552,
        0.99643456935882568,
        0.99997967481613159
      ],
      "min": [
        -0.99985390901565552,
        -0.99634087085723877,
        -0.9903826117515564
      ],
      "type": "VEC3"
    },
    {
      "bufferView": 3,
      "byteOffset": 22272,
      "componentType": 5126,
      "count": 384,
      "max": [
        0.75679367780685425,
        0.74726539850234985,
        0.99281615018844604,
        -1
      ],
      "min": [
        -0.99770307540893555,
        -0.7484772801399231,
        -0.99776995182037354,
        -1
      ],
      "type": "VEC4"
    },
    {
      "bufferView": 1,
      "byteOffset": 18816,
      "componentType": 5126,
      "count": 384,
      "max": [
        0.96190637350082397,
        0.9931483268737793
      ],
      "min": [
        0.0026781260967254639,
        0.047508716583251953
      ],
      "type": "VEC2"
    },
    {
      "bufferView": 0,
      "byteOffset": 41568,
      "componentType": 5125,
      "count": 1794,
      "max": [
        383
      ],
      "min": [
        0
      ],
      "type": "SCALAR"
    }
  ],
  "asset": {
    "extras": {
      "author": "Tomaso (https://sketchfab.com/Tomasoo)",
      "license": "CC-BY-4.0 (http://creativecommons.org/licenses/by/4.0/)",
      "source": "https://sketchfab.com/3d-models/jbl-e45bt-headphones-37ea9b0da02c4263a25dec853d54aca0",
      "title": "JBL E45BT Headphones"
    },
    "generator": "Sketchfab-8.82.0",
    "version": "2.0"
  },
  "bufferViews": [
    {
      "buffer": 0,
      "byteLength": 48744,
      "byteOffset": 0,
      "name": "floatBufferViews",
      "target": 34963
    },
    {
      "buffer": 0,
      "byteLength": 21888,
      "byteOffset": 48744,
      "byteStride": 8,
      "name": "floatBufferViews",
      "target": 34962
    },
    {
      "buffer": 0,
      "byteLength": 65664,
      "byteOffset": 70632,
      "byteStride": 12,
      "name": "floatBufferViews",
      "target": 34962
    },
    {
      "buffer": 0,
      "byteLength": 28416,
      "byteOffset": 136296,
      "byteStride": 16,
      "name": "floatBufferViews",
      "target": 34962
    }
  ],
  "buffers": [
    {
      "byteLength": 164712,
      "uri": "scene.bin"
    }
  ],
  "images": [
    {
      "uri": "textures/ear_bud_baseColor.png"
    },
    {
      "uri": "textures/ear_bud_metallicRoughness.png"
    },
    {
      "uri": "textures/Material.001_baseColor.png"
    },
    {
      "uri": "textures/Material.001_metallicRoughness.png"
    },
    {
      "uri": "textures/Material.001_normal.png"
    },
    {
      "uri": "textures/arka_baseColor.png"
    },
    {
      "uri": "textures/arka_metallicRoughness.png"
    },
    {
      "uri": "textures/arka_normal.png"
    }
  ],
  "materials": [
    {
      "doubleSided": true,
      "emissiveFactor": [
        0,
        0,
        0
      ],
      "name": "ear_bud",
      "pbrMetallicRoughness": {
        "baseColorFactor": [
          1,
          1,
          1,
          1
        ],
        "baseColorTexture": {
          "index": 0,
          "texCoord": 0
        },
        "metallicFactor": 1,
        "metallicRoughnessTexture": {
          "index": 1,
          "texCoord": 0
        },
        "roughnessFactor": 1
      }
    },
    {
      "doubleSided": true,
      "emissiveFactor": [
        0,
        0,
        0
      ],
      "name": "Material.001",
      "normalTexture": {
        "index": 4,
        "scale": 1,
        "texCoord": 0
      },
      "pbrMetallicRoughness": {
        "baseColorFactor": [
          1,
          1,
          1,
          1
        ],
        "baseColorTexture": {
          "index": 2,
          "texCoord": 0
        },
        "metallicFactor": 1,
        "metallicRoughnessTexture": {
          "index": 3,
          "texCoord": 0
        },
        "roughnessFactor": 0.5
      }
    },
    {
      "doubleSided": true,
      "emissiveFactor": [
        0,
        0,
        0
      ],
      "name": "arka",
      "normalTexture": {
        "index": 7,
        "scale": 1,
        "texCoord": 0
      },
      "pbrMetallicRoughness": {
        "baseColorFactor": [
          1,
          1,
          1,
          1
        ],
        "baseColorTexture": {
          "index": 5,
          "texCoord": 0
        },
        "metallicFactor": 1,
        "metallicRoughnessTexture": {
          "index": 6,
          "texCoord": 0
        },
        "roughnessFactor": 0.5
      }
    }
  ],
  "meshes": [
    {
      "name": "EarbudRight_ear bud_0",
      "primitives": [
        {
          "attributes": {
            "NORMAL": 1,
            "POSITION": 0,
            "TEXCOORD_0": 2
          },
          "indices": 3,
          "material": 0,
          "mode": 4
        }
      ]
    },
    {
      "name": "Headphones.001_Material.001_0",
      "primitives": [
        {
          "attributes": {
            "NORMAL": 5,
            "POSITION": 4,
            "TANGENT": 6,
            "TEXCOORD_0": 7
          },
          "indices": 8,
          "material": 1,
          "mode": 4
        }
      ]
    },
    {
      "name": "Headphones.001_arka_0",
      "primitives": [
        {
          "attributes": {
            "NORMAL": 10,
            "POSITION": 9,
            "TANGENT": 11,
            "TEXCOORD_0": 12
          },
          "indices": 13,
          "material": 2,
          "mode": 4
        }
      ]
    },
    {
      "name": "Headphones.000_Material.001_0",
      "primitives": [
        {
          "attributes": {
            "NORMAL": 15,
            "POSITION": 14,
            "TANGENT": 16,
            "TEXCOORD_0": 17
          },
          "indices": 18,
          "material": 1,
          "mode": 4
        }
      ]
    }
  ],
  "nodes": [
    {
      "children": [
        1
      ],
      "name": "RootNode (gltf orientation matrix)",
      "rotation": [
        -0.70710678118654746,
        -0,
        -0,
        0.70710678118654757
      ]
    },
    {
      "children": [
        2
      ],
      "name": "RootNode (model correction matrix)"
    },
    {
      "children": [
        3
      ],
      "matrix": [
        1,
        0,
        0,
        0,
        0,
        0,
        1,
        0,
        0,
        -1,
        0,
        0,
        0,
        0,
        0,
        1
      ],
      "name": "da1c2687c66846d0b2d2e12e3d3cffcc.fbx"
    },
    {
      "children": [
        4,
        6,
        9
      ],
      "name": "RootNode"
    },
    {
      "children": [
        5
      ],
      "matrix": [
        100,
        0,
        0,
        0,
        -0,
        -1.6292067939183141e-05,
        -99.999999999998678,
        0,
        0,
        99.999999999998678,
        -1.6292067939183141e-05,
        0,
        -7.7672993370470067e-08,
        2.0091064811822434e-07,
        -2.9802322387695312e-06,
        1
      ],
      "name": "EarbudRight"
    },
    {
      "mesh": 0,
      "name": "EarbudRight_ear bud_0"
    },
    {
      "children": [
        7,
        8
      ],
      "matrix": [
        100,
        0,
        0,
        0,
        -0,
        -1.6292067939183141e-05,
        -99.999999999998678,
        0,
        0,
        99.999999999998678,
        -1.6292067939183141e-05,
        0,
        -1.0859152155262564e-07,
        2.9690411906813097e-07,
        -2.9802322387695312e-06,
        1
      ],
      "name": "Headphones.001"
    },
    {
      "mesh": 1,
      "name": "Headphones.001_Material.001_0"
    },
    {
      "mesh": 2,
      "name": "Headphones.001_arka_0"
    },
    {
      "children": [
        10
      ],
      "matrix": [
        100,
        0,
        0,
        0,
        -0,
        -1.6292067939183141e-05,
        -99.999999999998678,
        0,
        0,
        99.999999999998678,
        -1.6292067939183141e-05,
        0,
        -1.0859152155262564e-07,
        2.9690411906813097e-07,
        -2.9802322387695312e-06,
        1
      ],
      "name": "Headphones.000"
    },
    {
      "mesh": 3,
      "name": "Headphones.000_Material.001_0"
    }
  ],
  "samplers": [
    {
      "magFilter": 9729,
      "minFilter": 9987,
      "wrapS": 10497,
      "wrapT": 10497
    }
  ],
  "scene": 0,
  "scenes": [
    {
      "name": "OSG_Scene",
      "nodes": [
        0
      ]
    }
  ],
  "textures": [
    {
      "sampler": 0,
      "source": 0
    },
    {
      "sampler": 0,
      "source": 1
    },
    {
      "sampler": 0,
      "source": 2
    },
    {
      "sampler": 0,
      "source": 3
    },
    {
      "sampler": 0,
      "source": 4
    },
    {
      "sampler": 0,
      "source": 5
    },
    {
      "sampler": 0,
      "source": 6
    },
    {
      "sampler": 0,
      "source": 7
    }
  ]
}

